<svg xmlns="http://www.w3.org/2000/svg" fill="none" stroke-linecap="square" stroke-miterlimit="10" viewBox="0 0 96 96"><clipPath id="a"><path d="M0 0h96v96H0z"/></clipPath><g clip-path="url(#a)"><path d="M0 0h96v96H0z"/><path d="M-.47 0h96.94v96H-.47z"/><path fill="#409573" d="M66.16 4.06q2.42 1.78 5.14 4.45 2.73 2.66 5.14 5.45 2.42 2.8 3.69 5.33l-2.16 58.44q-1.78 2.53-4.58 5.6-2.78 3.04-5.96 5.77t-6.1 4.63H37.71q-2.03-.25-5.33-2.03t-6.86-4.38-6.24-5.47q-2.65-2.86-3.42-5.14l3.44-56.78q1.27-2.16 3.6-5.14 2.37-2.98 5.15-5.84 2.8-2.86 5.1-4.77Q42.4 2.4 50.6 2.34t15.56 1.72M63.1 18.79q-6.22-1.4-13.53-1.27t-13.51 2.04q-2.04 6.86-3.25 16.2-1.2 9.33-1.46 18.72l33.02-27.56q-.25-2.16-.56-4.25-.32-2.1-.7-3.88M33.27 80.65l28.7-4.7q1.66-7.11 2.47-16.58.83-9.47.7-18.86L31.61 68.57q.25 3.56.69 6.55.45 2.98.97 5.53"/></g></svg>